<svg version="1.1" id="Layer_1" xmlns="http://www.w3.org/2000/svg" xmlns:xlink="http://www.w3.org/1999/xlink" x="0px" y="0px"
	 width="100%" viewBox="0 0 448 256" enable-background="new 0 0 448 256" xml:space="preserve">
<path fill="#000000" opacity="1.000000" stroke="none" 
	d="
M246.999878,207.380920 
	C211.169678,207.379791 175.839478,207.384338 140.509293,207.371658 
	C133.934372,207.369308 133.901718,207.329605 133.897522,200.613968 
	C133.885574,181.449020 133.920151,162.284012 133.888351,143.119125 
	C133.869568,131.797379 134.773331,133.665909 124.417442,133.250565 
	C107.792091,132.583740 91.700935,129.730240 77.005112,121.331062 
	C68.023674,116.197830 60.880192,109.358345 58.046574,99.150337 
	C54.384659,85.958443 59.319756,75.168396 68.968536,66.476036 
	C79.817215,56.702698 93.201126,52.138298 107.345795,49.695091 
	C130.679932,45.664600 153.754044,48.075184 176.669479,52.973782 
	C179.829544,53.649300 182.939682,53.706360 186.089645,53.707863 
	C236.751785,53.732040 287.413940,53.731335 338.076080,53.738232 
	C345.289886,53.739212 345.284973,53.743958 345.315155,60.877041 
	C345.351807,69.540787 345.394073,78.204514 345.455078,86.868111 
	C345.457245,87.173386 345.685303,87.477074 346.178864,88.700699 
	C361.204407,81.460564 376.638794,75.337860 393.717072,75.914558 
	C394.659912,80.254921 392.629608,81.210091 389.440918,81.331360 
	C375.743469,81.852295 362.961578,85.650322 350.703674,91.732979 
	C346.737946,93.700890 345.172699,95.903313 345.201294,100.461823 
	C345.410370,133.790878 345.317902,167.121857 345.309753,200.452225 
	C345.308075,207.357910 345.287140,207.371399 338.491547,207.373001 
	C308.160980,207.380127 277.830444,207.378860 246.999878,207.380920 
M151.515228,58.258427 
	C148.515640,58.256821 145.512787,58.341652 142.517380,58.228897 
	C139.619003,58.119785 138.277649,59.180485 138.288040,62.270432 
	C138.359207,83.435837 138.365662,104.601753 138.280838,125.767067 
	C138.268143,128.936752 139.675201,129.996201 142.531830,129.651917 
	C146.156219,129.215118 149.785507,128.780533 153.384201,128.175552 
	C173.241241,124.837357 190.644638,116.172539 206.275894,103.689125 
	C208.038376,102.281578 209.643814,100.043106 211.974915,103.149353 
	C214.197556,106.111069 212.498932,107.633728 210.186264,109.127281 
	C208.509354,110.210266 206.911026,111.417725 205.212860,112.464546 
	C186.298706,124.124031 165.496643,130.198456 143.621811,132.772400 
	C139.248672,133.286957 138.193939,134.874435 138.233734,138.998840 
	C138.423431,158.662766 138.433914,178.330643 138.233978,197.994339 
	C138.190170,202.303604 139.344269,203.745697 143.828674,203.736496 
	C207.658722,203.605499 271.489197,203.610992 335.319305,203.729965 
	C339.717651,203.738159 341.055145,202.350128 341.033783,197.998123 
	C340.876526,166.000366 340.938629,134.001556 340.897339,102.003136 
	C340.895752,100.765671 341.427856,99.309959 339.649384,98.063232 
	C338.276520,98.896080 336.699585,99.739456 335.242432,100.754768 
	C324.424011,108.292831 314.322571,116.713600 304.945007,125.969101 
	C292.372772,138.377686 280.081451,151.073654 267.392609,163.360260 
	C259.697601,170.811386 251.223907,177.338913 240.384903,179.700394 
	C230.475342,181.859360 225.454926,176.354263 228.452942,166.705963 
	C230.369675,160.537491 233.730057,155.050201 237.274338,148.984268 
	C231.112762,152.890762 225.550018,156.522705 219.885361,159.988113 
	C206.227341,168.343536 192.451202,176.527496 176.472870,179.705536 
	C171.652542,180.664276 166.095718,182.152802 162.340546,177.831955 
	C158.672256,173.611084 160.558670,168.332230 162.018066,163.574020 
	C165.508591,152.193558 173.873413,144.448059 182.549393,137.125198 
	C196.953445,124.967644 213.217377,115.304657 228.047943,103.706863 
	C234.315643,98.805389 240.416351,93.708664 245.587433,87.127525 
	C238.786224,81.890312 231.499054,78.328178 224.294418,74.600708 
	C203.811630,64.003479 182.787415,55.680984 159.005798,58.235256 
	C156.864288,58.465263 154.676010,58.259800 151.515228,58.258427 
M252.320511,131.817322 
	C266.484985,119.686615 280.495239,107.367943 294.908417,95.540337 
	C299.205475,92.014114 305.011902,93.602638 310.386871,92.997238 
	C309.996338,95.343781 308.765900,96.005516 307.738373,96.805710 
	C284.582336,114.838676 262.599884,134.183395 242.392883,155.492767 
	C238.506851,159.590790 234.708710,163.857040 232.366302,169.091431 
	C230.086411,174.186096 231.881195,176.864624 237.459564,176.653275 
	C244.240158,176.396378 249.862549,173.065216 255.145370,169.217087 
	C266.649628,160.837173 276.277802,150.434357 286.101898,140.238922 
	C302.175537,123.557655 318.279297,106.888496 337.920044,94.232201 
	C340.377563,92.648605 340.996979,90.580078 340.971649,87.905296 
	C340.899170,80.240189 340.951752,72.573982 340.924377,64.908325 
	C340.900696,58.269169 340.882080,58.249111 334.320282,58.248554 
	C291.158661,58.244896 247.997055,58.250629 204.835449,58.253265 
	C202.580460,58.253403 200.325455,58.253284 198.070465,58.253284 
	C213.846420,64.478592 228.863297,71.729095 243.018906,80.767036 
	C248.727570,84.411842 248.878647,84.231453 252.355804,78.265236 
	C254.307770,74.915970 255.103638,70.856819 258.039124,68.161461 
	C260.760071,69.197647 259.877258,70.851524 259.343536,72.412735 
	C253.495102,89.519630 244.016754,104.443329 232.014267,117.849548 
	C216.077362,135.650314 196.677246,149.156967 176.978439,162.303162 
	C173.249069,164.791992 169.261322,167.056900 166.480804,170.670624 
	C163.978195,173.923157 165.210968,176.434784 169.245056,176.693161 
	C173.445663,176.962204 177.582886,176.372681 181.541565,175.015305 
	C208.078934,165.915909 231.347534,151.410187 252.320511,131.817322 
M131.032150,129.826889 
	C134.858017,129.277939 133.863693,126.261269 133.870178,123.964066 
	C133.927032,103.810493 133.899933,83.656685 133.897842,63.502949 
	C133.897507,60.231697 133.897812,56.960442 133.897812,53.451221 
	C126.898300,54.130508 120.469208,54.781746 114.204865,56.432678 
	C97.976799,60.709492 83.165634,67.411995 72.626564,81.239243 
	C63.702446,92.947693 65.419762,107.910393 76.815094,116.709908 
	C80.775475,119.768120 85.229134,122.037247 89.927109,123.817398 
	C102.894836,128.731094 116.412163,129.934372 131.032150,129.826889 
z"/>
</svg>